<svg id="Layer_1" data-name="Layer 1" xmlns="http://www.w3.org/2000/svg" viewBox="0 0 407.64 243.1"><defs><style>.cls-1{fill:#fff;}.cls-2{fill:#fba308;}.cls-3{fill:#f8c979;}.cls-4{fill:#131c25;}.cls-5{fill:#505c68;}.cls-6{fill:#4f5b67;}.cls-7{fill:#353d45;}.cls-8{fill:#4d5864;}.cls-9{fill:#fefdfc;}.cls-10{fill:#d8d8d8;}.cls-11{fill:#d7d8d8;}.cls-12{fill:#d7d7d8;}.cls-13{fill:#d9d9d9;}.cls-14{fill:#d6d6d6;}.cls-15{fill:#131c24;}.cls-16{fill:#f8ca79;}.cls-17{fill:#f8ca7a;}.cls-18{fill:#f8ca7b;}.cls-19{fill:#151e26;}.cls-20{fill:#1b232b;}.cls-21{fill:#182029;}.cls-22{fill:#fefdfb;}.cls-23{fill:#fefcf8;}</style></defs><title>ACC2</title><path class="cls-1" d="M93.8,256.8c-2.4-1.7-4.7-3.4-7-5.1a1.2,1.2,0,0,1-.4-1.6c1.6-4.6,3-9.3,4.7-13.9.4-1,1.5-1.7,2.3-2.4,3.4-2.6,7-5,10.3-7.8,1.5-1.3,2.5-3.2,3.7-4.8,3.3-4.6,6.6-9.2,9.9-13.9,4.1-5.8,8.3-11.7,12.4-17.5,3.1-4.4,6.2-8.7,9.2-13.1v-.2c-.8-.6-1.7-1.1-2.5-1.8a1.69,1.69,0,0,1-.3-1c.1-2,.3-4,.5-5.9.1-1.2.3-2.3.5-3.5a19.42,19.42,0,0,0,.2-2.4c0-.2-.3-.5-.5-.6-1.9-.7-2.3-2.5-3-4a29.54,29.54,0,0,1-1.6-3.7,2,2,0,0,1,.1-1.7c1.8-2.7,3.8-5.2,5.6-7.9a1.34,1.34,0,0,1,1.6-.6c2.2.2,4.3.4,6.7.6-.8-1.7-1.5-3.2-2.2-4.8-.3-.7-.7-1.5-1-2.2-.1-.2.1-.5.2-.7,2.9-4,5.8-7.9,8.6-11.9,4.2-5.8,8.3-11.7,12.4-17.5,1.7-2.4,3.3-4.7,4.9-7.1a1.69,1.69,0,0,1,1.7-.7c2,.2,4,.3,5.9.5a1.84,1.84,0,0,0,1.8-.8c3-4.4,6.1-8.7,9.2-13.1,4.3-6.2,8.7-12.3,13-18.5,4-5.7,8-11.4,11.9-17.1,4.2-6,8.3-11.9,12.5-17.9,2.7-3.8,5.3-7.6,8-11.3a16.65,16.65,0,0,1,11.9-7,27.48,27.48,0,0,1,4.1-.2h32.8V43.5a3.34,3.34,0,0,1-1.1,2.7,69.32,69.32,0,0,0-8.5,10.9,77.53,77.53,0,0,0-10.5,26.2,74.17,74.17,0,0,0-1.4,18.2,76.59,76.59,0,0,0,16.1,43.2c1.5,1.9,3.2,3.7,4.7,5.5a1.49,1.49,0,0,1,.4.9v20H246.1V142.4H216.9V106.9h29.2V64.3c-.3.4-.6.8-.8,1.1-9.4,13.4-18.8,26.7-28.2,40.1-3.3,4.8-6.7,9.5-10.1,14.3a1.72,1.72,0,0,0-.2,1.2c.9,2.1,1.8,4.1,2.7,6.1a1.21,1.21,0,0,1-.1,1.5c-7.1,9.9-14.1,19.9-21.2,29.8-1.6,2.2-3.1,4.4-4.6,6.6a1.16,1.16,0,0,1-1.4.6c-1.8-.2-3.6-.3-5.4-.5h-1.5c.9,2.1,1.8,4.1,2.7,6.1a1.5,1.5,0,0,1-.1,1.7c-1.9,2.7-3.8,5.3-5.8,8a1.52,1.52,0,0,1-1,.6c-2.3-.1-4.6-.2-6.9-.5a4.35,4.35,0,0,1-1.9-1,2.11,2.11,0,0,0-2.4-.3c-3.2,1.5-6.4,2.9-9.6,4.3-.8.4-1.4.6-2-.2-.4-.5-1.2-.7-1.8-1.1-2.6,3.7-5.2,7.4-7.8,11-8.9,12.6-17.9,25.1-26.8,37.8-1.1,1.6-1.5,3.7-2.2,5.5-1.1,3.1-2.1,6.2-3.1,9.2a2.55,2.55,0,0,1-.8,1.2C102.1,250.5,98,253.7,93.8,256.8Zm74.9-77.3c.1-.1.3-.1.4-.2,2.1-3,4.1-6,6.1-9.1.1-.2.1-.8-.1-.9-1.1-.9-2.2-1.7-3.4-2.5-.2-.1-.7.2-1.1.3-1.9,2.8-3.8,5.7-5.7,8.5-.2.3-.3,1.1-.1,1.3C166,177.8,167.4,178.6,168.7,179.5Zm-29.3-21.1c.1-.1.3-.1.4-.2,2.1-3,4.1-6,6.1-9.1.1-.2.1-.8-.1-.9-1.1-.9-2.2-1.7-3.4-2.5-.2-.1-.7.2-1.1.3-1.9,2.8-3.8,5.7-5.7,8.5-.2.3-.3,1.1-.1,1.3C136.8,156.7,138.1,157.5,139.4,158.4Zm9.2-7.2c-1.9,3-3.9,6-5.9,9a1.12,1.12,0,0,0,.1,1.6A15.22,15.22,0,0,0,149,166c.3-.2.7-.3.9-.6,2-2.9,3.9-5.9,5.8-8.9a1.5,1.5,0,0,0,.1-1.3,14.66,14.66,0,0,0-6-4.4A5.64,5.64,0,0,0,148.6,151.2ZM161,174.7c.3-.2.8-.2,1-.5,2-2.9,3.9-5.9,5.8-8.9.2-.4.4-1.2.1-1.5a14.13,14.13,0,0,0-5.9-4.3c-.3-.1-.9.2-1.3.3-2,3-4,6.1-6.1,9.1-.5.7-.2,1.1.2,1.6A16.27,16.27,0,0,0,161,174.7Zm-21.6-12.4H139c-.4,3.5-.7,6.9-1.2,10.4a1.48,1.48,0,0,0,.7,1.6c.9.6,1.8,1.3,2.7,2,1.5,1.2,3,2.4,4.5,3.5-1.3,0-1.2,1.3-1.9,1.9,1.3,1.6,1.4,1.6,2.5,0,.2-.3.4-.7.6-1a4.18,4.18,0,0,1,1,.4l1.8,1.2c3.4-1.5,6.7-2.9,10.3-4.5a9,9,0,0,0-1.2-1c-4.5-3.4-9-6.9-13.6-10.3l-5.4-3.9A1.87,1.87,0,0,0,139.4,162.3Zm28.8-57.2-1.8,2.4-18.3,25.8a2,2,0,0,0,0,2.6c.9,1.4,3,1.9,4,1.1,1.4-1.9,2.9-3.9,4.3-5.8,5.4-7.6,10.7-15.1,16.1-22.7.6-.8,1.1-1.6.5-2.5a3.62,3.62,0,0,0-2.9-2A1.45,1.45,0,0,0,168.2,105.1Zm15.6,55.7c.1-.1.3-.2.4-.3,3.4-4.7,6.7-9.5,10-14.2s6.8-9.5,10.2-14.3a2,2,0,0,0-.2-3,7.24,7.24,0,0,0-1.9-1.1,1.6,1.6,0,0,0-2.3,1c-.2.2-.4.3-.5.5l-19.8,27.9a2,2,0,0,0,.2,2.8C181,161.6,182.7,161.9,183.8,160.8ZM89.1,248.9l-.3-.3-.1.1c0,.1.2.1.4.2,1.5,1.6,3,3,4.5,4.5a1.09,1.09,0,0,0,1.7.1c2.7-2.1,5.4-4.2,8.1-6.2a6.63,6.63,0,0,0,2.5-3.4c.8-2.6,1.7-5.1,2.7-7.6a21.48,21.48,0,0,1,1.5-3.8q14.55-20.7,29.3-41.2c1.1-1.6,1.1-1.8-.7-2.9-.1.1-.2.3-.4.5-4.1,5.9-8.3,11.8-12.4,17.6-4.4,6.3-8.8,12.5-13.2,18.8-2.2,3.2-4.6,6.2-5.6,10.1A13.93,13.93,0,0,1,103,242a4.9,4.9,0,0,1-5.5,1,2.92,2.92,0,0,0-.9-.2l-.1-.1.1.1c.6,1.3,1.4,2.5,1.9,3.8.7,1.6.3,2.1-1.4,1.8-.1,0-.1.1-.3.1a.6.6,0,0,1-.1.4c-.1,2.1-.7,2.7-2.6,2A37.22,37.22,0,0,1,89.1,248.9Zm100-128.5c-1.4,1.9-2.7,3.7-4.1,5.6-5.5,7.8-11,15.6-16.5,23.3-1,1.3-1.1,2.5-.1,3.7a9.13,9.13,0,0,0,3,2.5,2.86,2.86,0,0,0,3.2,0,3.59,3.59,0,0,0,1-.7c3-4.1,5.9-8.3,8.8-12.5,4.1-5.7,8.1-11.5,12.2-17.3a2.39,2.39,0,0,0,.5-1.4c.1-2-2.3-4.6-4.5-4.9C190.7,118.6,189.7,119,189.1,120.4Zm-26.6,26.7c.3-.3.8-.4,1-.8,3-4.1,5.9-8.3,8.8-12.5l12.3-17.4a2.39,2.39,0,0,0,.5-1.4c.1-2.1-2.2-4.6-4.5-4.9-1.8-.3-2.8.2-3.4,1.6-.5.6-.9,1.2-1.4,1.8-6.4,9.1-12.8,18.1-19.2,27.2a4,4,0,0,0-.7,2.1C156.1,145.7,159.7,148,162.5,147.1Zm-20.8,37.5c1.3,1.7,1.7,1.6,2.9-.8C142.9,182.3,142.9,182.3,141.7,184.6Zm.8,2.1c-1.8-1.6-1.9-1.6-3,.8C140.8,189.1,140.8,189.1,142.5,186.7Z" transform="translate(-86.26 -13.7)"/><path class="cls-2" d="M489.8,50.8c-9.4,5.4-18.6,10.8-27.9,16.1a40.51,40.51,0,0,0-26.3-11c-13.2-.6-24.5,3.9-33.4,13.7a42,42,0,0,0-.2,56.5c15.6,17.3,41.8,19.1,60,2.8,9.2,5.3,18.4,10.6,27.8,16a72.88,72.88,0,0,1-19.7,16.6,72,72,0,0,1-42.2,9.7,71.09,71.09,0,0,1-43.6-18.6,72.07,72.07,0,0,1-23.4-41.9,72,72,0,0,1,8-48.5A70.72,70.72,0,0,1,402.3,31,73.42,73.42,0,0,1,489.8,50.8Z" transform="translate(-86.26 -13.7)"/><path class="cls-3" d="M382.5,39.9A77.17,77.17,0,0,0,363.3,65a42.05,42.05,0,0,0-10.1-6,38.75,38.75,0,0,0-12.5-3c-10.9-.7-20.8,1.9-29.5,8.8a43.12,43.12,0,0,0-13.9,19.5,42.84,42.84,0,0,0,.6,28.9,39.71,39.71,0,0,0,7,11.9,42.09,42.09,0,0,0,14.8,11.3,35.89,35.89,0,0,0,12,3.4,49.22,49.22,0,0,0,6.7.4,40.56,40.56,0,0,0,20.1-5.9c1.5-.9,3-2,4.4-3,.8-.5.8.1,1.1.5,2,3.3,3.8,6.7,6,9.9a67.25,67.25,0,0,0,11.5,12.9,4.62,4.62,0,0,1,.7.7,1.38,1.38,0,0,1,.3.4c-26.2,21.1-65.6,21.3-92.5-1.4-15.1-12.8-23.9-29.2-25.9-48.8-2-19.9,3.2-38,15.8-53.7s28.8-24.6,48.6-27S366.2,27.6,382.5,39.9Z" transform="translate(-86.26 -13.7)"/><path class="cls-4" d="M185.1,216.9V177H493.9v39.9ZM373,215.7H492.7V178.2H373ZM234.3,182c-.5,5.8-1,11.5-1.5,17.2h-.2c-.5-5.7-1-11.5-1.5-17.2h-5.9c1.1,9.9,2.1,19.8,3.2,29.6h7.4c.4-4.3.9-8.6,1.3-12.9h.2c.5,4.3.9,8.6,1.4,12.9h7.2l3.3-29.7h-6c-.5,5.5-.9,11-1.4,16.5h-.3c-.5-5.5-.9-11-1.4-16.5C238,182,236.2,182,234.3,182Zm30.8-.1v29.7h6.1V198.3c1.8,0,2.2.3,2.2,1.9v11.3h6V200.2c0-1.7-.4-3.2-2.3-4.1a4.12,4.12,0,0,0,2.4-3.2,17.11,17.11,0,0,0-.3-7.8,4,4,0,0,0-4-3.2Zm71.4,14.9h.2v-8.2c-.1-3.3-1.7-5.7-4.5-6.3a13,13,0,0,0-4.8-.2,6,6,0,0,0-5.3,5.6,43.49,43.49,0,0,0-.2,5.1c0,4.3-.1,8.6.2,12.9a6.38,6.38,0,0,0,6.5,6.3c4.5.2,7.3-1.7,7.8-5.8C336.8,203.2,336.5,200,336.5,196.8Zm-17,.1h.2c0-2.8.1-5.5,0-8.3-.1-3.7-2.1-6-5.6-6.6a20.9,20.9,0,0,0-2.5-.1c-3.7.1-6.3,2.3-6.5,5.9-.3,5-.2,10.1-.2,15.1,0,1,.1,2,.2,3,.5,3.7,3,6.1,6.6,6.2,4.5.1,7.3-1.7,7.7-5.7A75.3,75.3,0,0,0,319.5,196.9Zm-96-.4h.2v-8.2c-.2-3.7-2.1-6-5.6-6.6a23.48,23.48,0,0,0-2.6-.1c-3.6.1-6.2,2.3-6.3,5.9-.3,5.1-.2,10.2-.2,15.3a28.25,28.25,0,0,0,.2,2.9c.5,3.7,3,6,6.5,6.1,4.5.1,7.3-1.7,7.8-5.7C223.8,203,223.5,199.7,223.5,196.5Zm134.8,4.3h-5.9c0,1.6-.1,3.1,0,4.6.3,4.1,2.1,6.1,5.8,6.6a12.16,12.16,0,0,0,3.3,0,5.2,5.2,0,0,0,4.6-3.5c1.4-3.9,1.6-9.3-2.4-13a51.81,51.81,0,0,1-4.1-4,6.81,6.81,0,0,1-1.5-2.6c-.3-.8.3-1.4,1.1-1.5a1.16,1.16,0,0,1,1.4,1.3v1.9h6.3c-.3-1.6-.4-3.1-.8-4.6a5.17,5.17,0,0,0-4-3.8,15.6,15.6,0,0,0-4.3-.3,5.63,5.63,0,0,0-5.1,4.3c-1,3.6-.5,6.8,2.2,9.5l4.3,4.3a5.82,5.82,0,0,1,1.6,5.3c-.1.4-.7,1.1-1.1,1.1a2.16,2.16,0,0,1-1.4-.9c-.2-.3-.1-.8-.2-1.3A18.3,18.3,0,0,0,358.3,200.8Zm-159.8-.9h3.3a4.74,4.74,0,0,0,4.6-3.3,17.25,17.25,0,0,0,0-11A4.9,4.9,0,0,0,202,182c-3.1-.2-6.2,0-9.3,0v29.7h5.8Zm52.2-18v29.7H263v-5.7h-6.1V199h5.5v-5.5h-5.5v-5.8h5.8V182C258.6,181.9,254.7,181.9,250.7,181.9Zm43.3,6v24h6v-24h3.4v-5.7h-13v5.7Zm57.3,24v-5h-6V182.3h-6V212C343.3,211.9,347.3,211.9,351.3,211.9Z" transform="translate(-86.26 -13.7)"/><path class="cls-5" d="M162.5,147.1c-2.8.9-6.4-1.4-6.6-4.2a3.32,3.32,0,0,1,.7-2.1c6.4-9.1,12.8-18.1,19.2-27.2a22,22,0,0,1,1.4-1.8,18.7,18.7,0,0,1,2.8.8,1.73,1.73,0,0,1,.9,2.7c-1.2,2.2-2.5,4.4-3.8,6.6l-12,20.4C164.1,143.9,163.3,145.5,162.5,147.1Z" transform="translate(-86.26 -13.7)"/><path class="cls-5" d="M174.5,155.5a2.7,2.7,0,0,1-3.2,0,10.27,10.27,0,0,1-3-2.5c-1-1.3-.8-2.4.1-3.7,5.5-7.8,11-15.6,16.5-23.3,1.3-1.9,2.7-3.7,4.1-5.6a11.46,11.46,0,0,1,2.8.8,1.73,1.73,0,0,1,.9,2.7c-1.2,2.2-2.5,4.4-3.8,6.6-3.8,6.4-7.5,12.8-11.3,19.3C176.6,151.7,175.6,153.6,174.5,155.5Z" transform="translate(-86.26 -13.7)"/><path class="cls-6" d="M96.5,242.9c.3.1.6.1.9.2a4.87,4.87,0,0,0,5.5-1,13.2,13.2,0,0,0,4.1-6.6c1.1-3.8,3.4-6.9,5.6-10.1,4.4-6.3,8.8-12.6,13.2-18.8,4.1-5.9,8.3-11.8,12.4-17.6a1.76,1.76,0,0,1,.4-.5c1.8,1.1,1.8,1.3.7,2.9Q124.6,212,110,232.6a15.85,15.85,0,0,0-1.5,3.8c-.9,2.5-1.9,5-2.7,7.6a6.12,6.12,0,0,1-2.5,3.4c-2.7,2-5.4,4.1-8.1,6.2-.6.5-1.1.6-1.7-.1-1.5-1.5-3.1-3-4.6-4.5l.1-.1c1.7.7,3.3,1.6,5,2.2,2,.6,2.6.1,2.6-2,0-.2,0-.3.1-.4a.37.37,0,0,1,.3-.1c1.6.3,2-.1,1.4-1.8a35.36,35.36,0,0,0-1.9-3.9Z" transform="translate(-86.26 -13.7)"/><path class="cls-5" d="M183.8,160.8c-1.1,1.1-2.9.8-4.1-.7a2.13,2.13,0,0,1-.2-2.8l19.8-27.9c.1-.2.3-.3.5-.5,2.2.3,2.8,1.5,1.6,3.4-1.1,1.7-2.2,3.5-3.3,5.3L185.2,158Z" transform="translate(-86.26 -13.7)"/><path class="cls-5" d="M152.1,137c-1,.8-3,.3-4-1.1a2,2,0,0,1,0-2.6l18.3-25.8,1.8-2.4c2.1.2,2.8,1.5,1.7,3.2s-2.2,3.6-3.4,5.4l-12.9,20.4C153.1,135,152.6,136,152.1,137Z" transform="translate(-86.26 -13.7)"/><path class="cls-5" d="M145.7,179.8c-1.5-1.2-3-2.4-4.5-3.5-.9-.7-1.8-1.4-2.7-2a1.48,1.48,0,0,1-.7-1.6c.4-3.5.8-6.9,1.2-10.4h.4l.5.5c.2.3.4.7.6,1,1,1,2.1,1.9,3,2.9,2.9,2.9,5.8,5.9,8.8,8.8a1.34,1.34,0,0,1,.2,2c-1,1.6-1.9,3.4-2.9,5l-1.8-1.2a4.18,4.18,0,0,0-1-.4h0a8.65,8.65,0,0,0-1-.7h0c0-.3,0-.4-.1-.4Z" transform="translate(-86.26 -13.7)"/><path class="cls-7" d="M162.5,147.1c.8-1.6,1.6-3.2,2.5-4.7L177,122c1.3-2.2,2.6-4.4,3.8-6.6q1-1.8-.9-2.7c-.9-.4-1.9-.5-2.8-.8.6-1.4,1.7-1.9,3.4-1.6,2.3.3,4.6,2.9,4.5,4.9a2.39,2.39,0,0,1-.5,1.4L172.2,134c-2.9,4.2-5.9,8.3-8.8,12.5C163.2,146.7,162.8,146.8,162.5,147.1Z" transform="translate(-86.26 -13.7)"/><path class="cls-7" d="M174.5,155.5c1.1-1.9,2.1-3.8,3.2-5.7,3.8-6.4,7.5-12.8,11.3-19.3,1.3-2.2,2.6-4.4,3.8-6.6q1-1.8-.9-2.7c-.9-.4-1.9-.5-2.8-.8.6-1.4,1.6-1.9,3.4-1.6,2.2.3,4.6,2.9,4.5,4.9a2.39,2.39,0,0,1-.5,1.4c-4,5.8-8.1,11.5-12.2,17.3-2.9,4.2-5.9,8.3-8.8,12.5C175.3,155.2,174.9,155.3,174.5,155.5Z" transform="translate(-86.26 -13.7)"/><path class="cls-5" d="M161,174.7a15.54,15.54,0,0,1-6.2-4.2,1.19,1.19,0,0,1-.2-1.6c2.1-3,4.1-6.1,6.1-9.1a24.8,24.8,0,0,1,3.2,1.7,1.73,1.73,0,0,1,.7,2.4C163.4,167.4,162.2,171.1,161,174.7Z" transform="translate(-86.26 -13.7)"/><path class="cls-5" d="M149,166a14.88,14.88,0,0,1-6.2-4.2,1.12,1.12,0,0,1-.1-1.6c2-3,3.9-6,5.9-9,1.1.6,2.3,1.2,3.4,1.9a1.71,1.71,0,0,1,.6,2c-.5,1.5-1,2.9-1.5,4.4C150.4,161.6,149.7,163.8,149,166Z" transform="translate(-86.26 -13.7)"/><path class="cls-7" d="M149.7,182.4c1-1.7,1.9-3.4,2.9-5a1.34,1.34,0,0,0-.2-2c-3-2.9-5.9-5.8-8.8-8.8-1-1-2-1.9-3-2.9a3.33,3.33,0,0,1-.6-1c1.8,1.3,3.6,2.5,5.4,3.9,4.5,3.4,9,6.9,13.6,10.3a6.94,6.94,0,0,0,1.2,1C156.5,179.4,153.1,180.9,149.7,182.4Z" transform="translate(-86.26 -13.7)"/><path class="cls-7" d="M152.1,137a26.39,26.39,0,0,1,1.5-2.9l12.9-20.4c1.1-1.8,2.2-3.6,3.4-5.4s.5-3-1.7-3.2a1.58,1.58,0,0,1,1.9-1.2,3.48,3.48,0,0,1,2.9,2c.6.9,0,1.7-.5,2.5-5.4,7.6-10.7,15.1-16.1,22.7C155,133.2,153.6,135.1,152.1,137Z" transform="translate(-86.26 -13.7)"/><path class="cls-7" d="M183.8,160.8a26.39,26.39,0,0,1,1.5-2.9l12.9-20.4c1.1-1.8,2.2-3.5,3.3-5.3s.6-3.1-1.6-3.4a1.63,1.63,0,0,1,2.3-1,5.93,5.93,0,0,1,1.9,1.1,2,2,0,0,1,.2,3c-3.4,4.8-6.8,9.5-10.2,14.3s-6.7,9.5-10,14.2C184.1,160.6,183.9,160.7,183.8,160.8Z" transform="translate(-86.26 -13.7)"/><path class="cls-5" d="M139.4,158.4c-1.3-.9-2.7-1.7-3.9-2.6-.2-.1-.1-1,.1-1.3,1.9-2.9,3.8-5.7,5.7-8.5a5.91,5.91,0,0,1,1.4.6,1.55,1.55,0,0,1,.8,2.4c-.8,1.5-1.5,3.2-2.2,4.8C140.7,155.2,140.1,156.8,139.4,158.4Z" transform="translate(-86.26 -13.7)"/><path class="cls-5" d="M168.7,179.5c-1.3-.9-2.7-1.7-3.9-2.6-.2-.1-.1-1,.1-1.3,1.9-2.9,3.8-5.7,5.7-8.5a5.91,5.91,0,0,1,1.4.6,1.55,1.55,0,0,1,.8,2.4c-.8,1.5-1.5,3.2-2.2,4.8C170,176.3,169.3,177.9,168.7,179.5Z" transform="translate(-86.26 -13.7)"/><path class="cls-7" d="M161,174.7c1.2-3.6,2.4-7.3,3.6-10.9a1.76,1.76,0,0,0-.7-2.4c-1-.6-2.1-1.1-3.2-1.7.4-.1.9-.4,1.3-.3a14.13,14.13,0,0,1,5.9,4.3,2,2,0,0,1-.1,1.5c-1.9,3-3.9,5.9-5.8,8.9C161.8,174.5,161.3,174.5,161,174.7Z" transform="translate(-86.26 -13.7)"/><path class="cls-7" d="M149,166c.7-2.2,1.3-4.4,2-6.6.5-1.5,1-2.9,1.5-4.4a1.49,1.49,0,0,0-.6-2c-1.1-.7-2.3-1.2-3.4-1.9.4-.1.9-.4,1.2-.3a13.08,13.08,0,0,1,6,4.4c.2.2.1,1-.1,1.3-1.9,3-3.8,6-5.8,8.9C149.8,165.7,149.3,165.8,149,166Z" transform="translate(-86.26 -13.7)"/><path class="cls-7" d="M168.7,179.5c.6-1.6,1.3-3.2,1.9-4.7a51.14,51.14,0,0,1,2.2-4.8c.6-1.2.3-1.9-.8-2.4-.4-.2-.9-.4-1.4-.6.4-.1.9-.4,1.1-.3,1.2.8,2.3,1.6,3.4,2.5.2.1.2.7.1.9-2,3-4.1,6.1-6.1,9.1C169,179.4,168.8,179.4,168.7,179.5Z" transform="translate(-86.26 -13.7)"/><path class="cls-7" d="M139.4,158.4c.6-1.6,1.3-3.2,1.9-4.7a51.14,51.14,0,0,1,2.2-4.8c.6-1.2.3-1.9-.8-2.4-.4-.2-.9-.4-1.4-.6.4-.1.9-.4,1.1-.3,1.2.8,2.3,1.6,3.4,2.5.2.1.2.7.1.9-2,3-4.1,6.1-6.1,9.1C139.7,158.3,139.5,158.3,139.4,158.4Z" transform="translate(-86.26 -13.7)"/><path class="cls-8" d="M146.9,180.7c-.2.3-.4.7-.6,1-1.1,1.6-1.2,1.5-2.5,0,.7-.6.6-1.9,1.9-1.9h0l.2.2h0c.3.2.7.5,1,.7Z" transform="translate(-86.26 -13.7)"/><path class="cls-8" d="M141.7,184.6c1.2-2.3,1.2-2.3,2.9-.8C143.4,186.1,142.9,186.3,141.7,184.6Z" transform="translate(-86.26 -13.7)"/><path class="cls-8" d="M142.5,186.7c-1.7,2.3-1.7,2.3-3,.8C140.6,185.1,140.7,185.1,142.5,186.7Z" transform="translate(-86.26 -13.7)"/><path class="cls-6" d="M89,248.9a.76.76,0,0,0-.4-.2l.1-.1q.15,0,.3.3Z" transform="translate(-86.26 -13.7)"/><path class="cls-7" d="M139.4,162.3h0Z" transform="translate(-86.26 -13.7)"/><path class="cls-6" d="M96.5,242.9l-.1-.1a.1.1,0,0,1,.1.1Z" transform="translate(-86.26 -13.7)"/><path class="cls-9" d="M373,215.7V178.2H492.7v37.5Zm87.6-33.3V196a3.49,3.49,0,0,1-.5-1.3c-.7-3.8-1.4-7.6-2.2-11.4a2,2,0,0,0-.6-.9c-1.9-.1-3.7,0-5.5,0V212h5.7V198.5h.2c.9,4.5,1.9,9.1,2.8,13.5h5.8V182.4ZM392.9,212h6V198.8c1.7-.1,2.1.3,2.1,1.8v11.5h6V200.9c0-1.7-.4-3.3-2.5-4.2a3.9,3.9,0,0,0,2.6-3.6,21.69,21.69,0,0,0-.1-5.7c-.6-3.8-2-4.9-5.9-4.9H394a6.15,6.15,0,0,0-1.3.1C392.9,192.4,392.9,202.2,392.9,212Zm33.6-29.4v29.6c3,0,5.9.1,8.7,0,2.4-.1,4.3-1.2,5-3.6a17,17,0,0,0,.8-4.4c.1-4.6,0-9.2,0-13.8,0-1-.1-2-.2-3-.4-2.7-1.8-4.4-4.5-4.7C433.1,182.4,429.9,182.6,426.5,182.6Zm56.8,9.9a20.83,20.83,0,0,0,0-2.5c-.2-2.1-.4-4.2-2-5.8-2.4-2.5-5.5-2.4-8.5-1.5a6.4,6.4,0,0,0-4.2,6.1c-.1,5.6-.1,11.1,0,16.7a10.71,10.71,0,0,0,1,3.9,4.79,4.79,0,0,0,3.5,2.8,5.88,5.88,0,0,0,6.6-2.3c1.4,2.5,1.4,2.5,3.3,2.2V195h-7.1v4.9a6.75,6.75,0,0,0,1.4.2v2.5a16.68,16.68,0,0,1-.2,3.2,1.63,1.63,0,0,1-1.3,1.1c-.5,0-1-.6-1.4-1-.2-.2-.2-.7-.2-1V189.8c0-1.2.7-2,1.7-1.9,1.2,0,1.3,1,1.4,1.9a28,28,0,0,1,0,2.9C479.6,192.5,481.4,192.5,483.3,192.5Zm-64.8,14.8c.2,1.7.4,3.2.5,4.7h5.5v-1.4c-.4-3.7-.8-7.4-1.1-11.2l-1.5-16.2c0-.3-.4-.8-.7-.8-3.1-.1-6.3,0-9.5,0-1,10-1.9,19.8-2.9,29.8,1.6,0,3.1-.1,4.6,0,1.1.1,1.4-.4,1.4-1.4,0-1.2.1-2.4.2-3.7C416.2,207.2,417.3,207.3,418.5,207.3Zm-36.8-19.2V212h6V188.1h3.5v-5.6h-13v5.6Zm61.7-5.7V212H449V182.4Z" transform="translate(-86.26 -13.7)"/><path class="cls-10" d="M234.3,182h5.6c.5,5.5.9,11,1.4,16.5h.3c.5-5.5.9-11,1.4-16.5h6l-3.3,29.7h-7.2c-.5-4.3-.9-8.6-1.4-12.9h-.2c-.4,4.3-.9,8.6-1.3,12.9h-7.4c-1.1-9.8-2.1-19.7-3.2-29.6h5.9c.5,5.7,1,11.5,1.5,17.2h.2C233.2,193.5,233.7,187.8,234.3,182Z" transform="translate(-86.26 -13.7)"/><path class="cls-11" d="M265.1,181.9c3.4,0,6.7-.1,10,0a4,4,0,0,1,4,3.2,17.16,17.16,0,0,1,.3,7.8,4.12,4.12,0,0,1-2.4,3.2c1.8.8,2.3,2.3,2.3,4.1v11.3h-6V200.2c0-1.6-.4-2-2.2-1.9v13.3H265C265.1,201.8,265.1,191.9,265.1,181.9Zm6.1,11c2.1.1,2.5-.2,2.6-2.2v-1.1c-.1-2.1-.5-2.4-2.6-2Z" transform="translate(-86.26 -13.7)"/><path class="cls-10" d="M336.5,196.8a76.89,76.89,0,0,1-.1,9.6c-.5,4.1-3.3,5.9-7.8,5.8a6.51,6.51,0,0,1-6.5-6.3c-.3-4.3-.2-8.6-.2-12.9a43.49,43.49,0,0,1,.2-5.1,5.74,5.74,0,0,1,5.3-5.6,12.86,12.86,0,0,1,4.8.2c2.8.7,4.4,3.1,4.5,6.3.1,2.7,0,5.4,0,8.2C336.6,196.8,336.6,196.8,336.5,196.8Zm-5.8.2v-5a20.55,20.55,0,0,0-.2-3.5c-.1-.4-.7-1-1-1a1.76,1.76,0,0,0-1.3.9,3.59,3.59,0,0,0-.2,1.8v13.4a6.15,6.15,0,0,0,.2,1.9,1.68,1.68,0,0,0,1.2,1c.4,0,.9-.6,1.2-1a4.4,4.4,0,0,0,.2-1.6C330.7,201.6,330.7,199.3,330.7,197Z" transform="translate(-86.26 -13.7)"/><path class="cls-10" d="M319.5,196.9a76.89,76.89,0,0,1-.1,9.6c-.5,4-3.3,5.9-7.7,5.7-3.6-.1-6.1-2.5-6.6-6.2-.1-1-.2-2-.2-3,0-5-.1-10.1.2-15.1.2-3.6,2.8-5.8,6.5-5.9a20.9,20.9,0,0,1,2.5.1c3.5.6,5.5,2.9,5.6,6.6.1,2.8,0,5.5,0,8.3A.31.31,0,0,0,319.5,196.9Zm-8.7,0h0v7.4c0,1,0,2.2,1.4,2.2s1.3-1.3,1.3-2.3c.1-2,0-4,0-6v-8.7c0-.9.1-2-1.2-2.1-.9-.1-1.5.7-1.6,2.1v.8C310.8,192.6,310.8,194.8,310.8,196.9Z" transform="translate(-86.26 -13.7)"/><path class="cls-10" d="M223.5,196.5a78.5,78.5,0,0,1-.1,9.7c-.5,4-3.3,5.9-7.8,5.7a6.61,6.61,0,0,1-6.5-6.1,26.42,26.42,0,0,1-.2-2.9c0-5.1-.1-10.2.2-15.3.2-3.6,2.8-5.8,6.3-5.9a11.11,11.11,0,0,1,2.6.1c3.5.6,5.4,2.9,5.6,6.6v8.2A.1.1,0,0,0,223.5,196.5Zm-5.8.2v-7a3.18,3.18,0,0,0-.2-1.4c-.3-.4-.8-1-1.2-1a2,2,0,0,0-1.3,1,3.64,3.64,0,0,0-.2,1.5v13.8a4.22,4.22,0,0,0,.3,1.9,1.64,1.64,0,0,0,1.2.8,1.47,1.47,0,0,0,1-.9,6.15,6.15,0,0,0,.2-1.9C217.7,201.2,217.7,199,217.7,196.7Z" transform="translate(-86.26 -13.7)"/><path class="cls-10" d="M358.3,200.8v3.5c0,.4-.1,1,.2,1.3s.9.9,1.4.9,1-.7,1.1-1.1a5.82,5.82,0,0,0-1.6-5.3c-1.5-1.4-2.9-2.9-4.3-4.3a8.85,8.85,0,0,1-2.2-9.5A5.65,5.65,0,0,1,358,182a15.6,15.6,0,0,1,4.3.3,4.91,4.91,0,0,1,4,3.8,31.44,31.44,0,0,1,.8,4.6h-6.3v-1.9c-.1-.9-.5-1.4-1.4-1.3s-1.4.7-1.1,1.5a6.81,6.81,0,0,0,1.5,2.6c1.3,1.4,2.7,2.7,4.1,4,4,3.6,3.8,9,2.4,13a5.31,5.31,0,0,1-4.6,3.5,18.18,18.18,0,0,1-3.3,0c-3.7-.5-5.5-2.6-5.8-6.6-.1-1.5,0-3,0-4.6C354.3,200.8,356.2,200.8,358.3,200.8Z" transform="translate(-86.26 -13.7)"/><path class="cls-10" d="M198.5,199.9v11.7h-5.8V181.9c3.1,0,6.3-.1,9.3,0a4.78,4.78,0,0,1,4.4,3.6,17.25,17.25,0,0,1,0,11,4.62,4.62,0,0,1-4.6,3.3A17.93,17.93,0,0,1,198.5,199.9Zm.1-5.3c2-.1,2.5-.6,2.6-2.4v-2.6c-.1-1.7-.8-2.2-2.6-2Z" transform="translate(-86.26 -13.7)"/><path class="cls-12" d="M250.7,181.9h11.9v5.7h-5.8v5.8h5.5v5.5h-5.5v6.9h6.1v5.7H250.6C250.7,201.8,250.7,191.9,250.7,181.9Z" transform="translate(-86.26 -13.7)"/><path class="cls-13" d="M294,187.9h-3.5v-5.7h13v5.7h-3.4v24h-6C294,203.9,294,196,294,187.9Z" transform="translate(-86.26 -13.7)"/><path class="cls-14" d="M351.3,211.9H339.2V182.2h6v24.6h6C351.3,208.5,351.3,210.2,351.3,211.9Z" transform="translate(-86.26 -13.7)"/><path class="cls-15" d="M146.9,180.7a8.65,8.65,0,0,0-1-.7C146.2,180.2,146.6,180.5,146.9,180.7Z" transform="translate(-86.26 -13.7)"/><path class="cls-15" d="M145.9,180l-.2-.2C145.8,179.8,145.8,179.9,145.9,180Z" transform="translate(-86.26 -13.7)"/><path class="cls-16" d="M460.6,182.4h5.6V212h-5.8c-.9-4.5-1.8-9-2.8-13.5h-.2V212h-5.7V182.4h5.5c.2,0,.5.5.6.9.8,3.8,1.5,7.6,2.2,11.4a3,3,0,0,0,.5,1.3C460.6,191.5,460.6,187,460.6,182.4Z" transform="translate(-86.26 -13.7)"/><path class="cls-17" d="M392.9,212V182.4c.4,0,.9-.1,1.3-.1h7.1c3.9,0,5.3,1.1,5.9,4.9a27.16,27.16,0,0,1,.1,5.7,3.9,3.9,0,0,1-2.6,3.6c2,.8,2.5,2.4,2.5,4.2v11.2h-6V200.4c0-1.5-.5-1.8-2.1-1.8v13.2C396.9,212,394.9,212,392.9,212Zm6.1-24v5.4c2.1.2,2.5-.2,2.5-2.2v-1C401.5,188.1,401.2,187.8,399,188Z" transform="translate(-86.26 -13.7)"/><path class="cls-17" d="M426.5,182.6c3.3,0,6.6-.2,9.8.1,2.7.2,4.1,2,4.5,4.7a15.14,15.14,0,0,1,.2,3c0,4.6.1,9.2,0,13.8a13.17,13.17,0,0,1-.8,4.4,5,5,0,0,1-5,3.6c-2.9.1-5.7,0-8.7,0Zm6,24.1c1.8.4,2.6-.1,2.6-1.6V189.8c0-1.8-.7-2.3-2.6-1.9Z" transform="translate(-86.26 -13.7)"/><path class="cls-3" d="M483.3,192.5h-5.8a28,28,0,0,0,0-2.9c-.1-.9-.1-1.8-1.4-1.9a1.69,1.69,0,0,0-1.7,1.9v15.1a1.5,1.5,0,0,0,.2,1c.4.4.9,1,1.4,1a1.63,1.63,0,0,0,1.3-1.1,16.68,16.68,0,0,0,.2-3.2v-2.5a6.75,6.75,0,0,0-1.4-.2v-4.9h7.1v17.1c-2,.4-2,.4-3.3-2.2a5.88,5.88,0,0,1-6.6,2.3,4.79,4.79,0,0,1-3.5-2.8,10.71,10.71,0,0,1-1-3.9c-.1-5.6-.1-11.1,0-16.7a6.06,6.06,0,0,1,4.2-6.1c3-.9,6-1,8.5,1.5,1.6,1.6,1.7,3.7,2,5.8A22.82,22.82,0,0,0,483.3,192.5Z" transform="translate(-86.26 -13.7)"/><path class="cls-17" d="M418.5,207.3c-1.2-.1-2.3-.1-3.5-.2-.1,1.3-.2,2.5-.2,3.7,0,1-.3,1.5-1.4,1.4-1.5-.1-2.9,0-4.6,0,1-10,1.9-19.8,2.9-29.8h9.5a1.14,1.14,0,0,1,.7.8l1.5,16.2c.4,3.7.8,7.4,1.1,11.2V212H419C418.9,210.5,418.7,209,418.5,207.3Zm-1.7-19.5h-.3c-.4,4.9-.7,9.8-1.1,14.7h2.7C417.7,197.5,417.2,192.7,416.8,187.8Z" transform="translate(-86.26 -13.7)"/><path class="cls-17" d="M381.7,188.1h-3.5v-5.6h13v5.6h-3.5V212h-6Z" transform="translate(-86.26 -13.7)"/><path class="cls-18" d="M443.4,182.4H449V212h-5.6Z" transform="translate(-86.26 -13.7)"/><path class="cls-19" d="M271.2,192.9v-5.3c2.1-.4,2.5,0,2.6,2v1.1C273.7,192.7,273.3,193,271.2,192.9Z" transform="translate(-86.26 -13.7)"/><path class="cls-20" d="M330.7,197v6.8a3.9,3.9,0,0,1-.2,1.6,1.68,1.68,0,0,1-1.2,1c-.4,0-1-.6-1.2-1a6.15,6.15,0,0,1-.2-1.9V190.1a5.24,5.24,0,0,1,.2-1.8,2,2,0,0,1,1.3-.9c.3,0,1,.6,1,1a20,20,0,0,1,.2,3.5C330.7,193.7,330.7,195.4,330.7,197Z" transform="translate(-86.26 -13.7)"/><path class="cls-20" d="M310.8,196.9v-7.3c.1-1.5.6-2.2,1.6-2.1,1.3.1,1.2,1.2,1.2,2.1v8.7c0,2,.1,4,0,6,0,.9.1,2.3-1.3,2.3s-1.4-1.3-1.4-2.2c-.1-2.5,0-5-.1-7.5Z" transform="translate(-86.26 -13.7)"/><path class="cls-20" d="M217.7,196.7v6.8a6.15,6.15,0,0,1-.2,1.9c-.2.4-.7.9-1,.9a1.64,1.64,0,0,1-1.2-.8,3.81,3.81,0,0,1-.3-1.9V189.8a3.64,3.64,0,0,1,.2-1.5c.3-.4.8-1,1.3-1s.9.6,1.2,1a3.18,3.18,0,0,1,.2,1.4C217.7,192.1,217.7,194.4,217.7,196.7Z" transform="translate(-86.26 -13.7)"/><path class="cls-21" d="M198.6,194.6v-7.1c1.8-.2,2.4.3,2.6,2a11.3,11.3,0,0,1,0,2.6C201.1,194,200.5,194.5,198.6,194.6Z" transform="translate(-86.26 -13.7)"/><path class="cls-9" d="M399,188c2.2-.2,2.5.1,2.5,2.2v1c0,2-.5,2.4-2.5,2.2Z" transform="translate(-86.26 -13.7)"/><path class="cls-22" d="M432.5,206.7V187.8c1.9-.4,2.6.1,2.6,1.9V205C435.1,206.6,434.3,207.1,432.5,206.7Z" transform="translate(-86.26 -13.7)"/><path class="cls-23" d="M416.8,187.8c.4,4.9.9,9.7,1.3,14.7h-2.7c.4-4.9.7-9.8,1.1-14.7Z" transform="translate(-86.26 -13.7)"/></svg>